<?xml version="1.0" encoding="UTF-8" standalone="no"?>
<svg
   class="ionicon"
   viewBox="0 0 512 512"
   version="1.1"
   id="svg2"
   sodipodi:docname="logo-instagram.svg"
   inkscape:version="1.4 (86a8ad7, 2024-10-11)"
   xmlns:inkscape="http://www.inkscape.org/namespaces/inkscape"
   xmlns:sodipodi="http://sodipodi.sourceforge.net/DTD/sodipodi-0.dtd"
   xmlns="http://www.w3.org/2000/svg"
   xmlns:svg="http://www.w3.org/2000/svg">
  <defs
     id="defs2" />
  <sodipodi:namedview
     id="namedview2"
     pagecolor="#ffffff"
     bordercolor="#000000"
     borderopacity="0.25"
     inkscape:showpageshadow="2"
     inkscape:pageopacity="0.0"
     inkscape:pagecheckerboard="0"
     inkscape:deskcolor="#d1d1d1"
     inkscape:zoom="0.55726091"
     inkscape:cx="91.51907"
     inkscape:cy="429.78073"
     inkscape:window-width="1920"
     inkscape:window-height="1009"
     inkscape:window-x="-8"
     inkscape:window-y="-8"
     inkscape:window-maximized="1"
     inkscape:current-layer="svg2" />
  <path
     id="path1"
     d="M 162.66992 32 C 90.799922 32 32 90.799922 32 162.66992 L 32 349.33008 C 32 421.20008 90.799922 480 162.66992 480 L 349.33008 480 C 421.20008 480 480 421.20008 480 349.33008 L 480 162.66992 C 480 90.799922 421.20008 32 349.33008 32 L 162.66992 32 z M 368.67773 108.04102 A 28 28 0 0 1 405.33008 134.66992 A 27.94 27.94 0 0 1 377.33008 162.66992 A 28 28 0 0 1 368.67773 108.04102 z M 256 144 A 112 112 0 0 1 368 256 A 112 112 0 1 1 256 144 z M 256 181.33008 A 74.75 74.75 0 0 0 181.33008 256 A 74.67 74.67 0 1 0 256 181.33008 z "
     style="fill:#282828;fill-opacity:1" />
</svg>
